HIERARCHY
ROOT joint_0
{
	OFFSET 0.000000 0.000000 0.000000
	CHANNELS 6 Xposition Yposition Zposition Zrotation Yrotation Xrotation 
	JOINT joint_1
	{
		OFFSET 13.542969 -4.074463 123.986084
		CHANNELS 3 Zrotation Yrotation Xrotation
		JOINT joint_2
		{
			OFFSET -0.108154 -3.018066 113.860962
			CHANNELS 3 Zrotation Yrotation Xrotation
			JOINT joint_3
			{
				OFFSET -1.139648 -3.876465 113.702026
				CHANNELS 3 Zrotation Yrotation Xrotation
				JOINT joint_4
				{
					OFFSET 13.593506 -8.582153 160.876953
					CHANNELS 3 Zrotation Yrotation Xrotation
					JOINT joint_5
					{
						OFFSET 26.480957 -11.565674 94.427979
						CHANNELS 3 Zrotation Yrotation Xrotation
						End Site
						{
							OFFSET 0.000000 0.000000 0.000000
						}
					}
				}
				JOINT joint_6
				{
					OFFSET 3.003662 -39.658691 88.713989
					CHANNELS 3 Zrotation Yrotation Xrotation
					JOINT joint_7
					{
						OFFSET -25.253906 -162.506348 -28.477051
						CHANNELS 3 Zrotation Yrotation Xrotation
						JOINT joint_8
						{
							OFFSET 23.083252 -8.502686 -295.281982
							CHANNELS 3 Zrotation Yrotation Xrotation
							JOINT joint_9
							{
								OFFSET 20.205566 -32.167908 -263.458008
								CHANNELS 3 Zrotation Yrotation Xrotation
								End Site
								{
									OFFSET 0.000000 0.000000 0.000000
								}
							}
						}
					}
				}
				JOINT joint_10
				{
					OFFSET 12.313232 30.012939 91.642944
					CHANNELS 3 Zrotation Yrotation Xrotation
					JOINT joint_11
					{
						OFFSET 31.960205 162.667969 -19.398926
						CHANNELS 3 Zrotation Yrotation Xrotation
						JOINT joint_12
						{
							OFFSET 51.325195 40.249023 -289.038086
							CHANNELS 3 Zrotation Yrotation Xrotation
							JOINT joint_13
							{
								OFFSET 70.170898 60.433594 -249.556030
								CHANNELS 3 Zrotation Yrotation Xrotation
								End Site
								{
									OFFSET 0.000000 0.000000 0.000000
								}
							}
						}
					}
				}
			}
		}
	}
	JOINT joint_14
	{
		OFFSET -15.093262 -91.803833 -113.326904
		CHANNELS 3 Zrotation Yrotation Xrotation
		JOINT joint_15
		{
			OFFSET 2.288818 -12.306763 -494.206055
			CHANNELS 3 Zrotation Yrotation Xrotation
			JOINT joint_16
			{
				OFFSET -54.691650 0.383423 -424.447006
				CHANNELS 3 Zrotation Yrotation Xrotation
				JOINT joint_17
				{
					OFFSET 202.154297 -21.791382 -80.181999
					CHANNELS 3 Zrotation Yrotation Xrotation
					End Site
					{
						OFFSET 0.000000 0.000000 0.000000
					}
				}
			}
		}
	}
	JOINT joint_18
	{
		OFFSET 10.704102 91.957275 -113.713013
		CHANNELS 3 Zrotation Yrotation Xrotation
		JOINT joint_19
		{
			OFFSET 0.427490 1.374878 -494.359924
			CHANNELS 3 Zrotation Yrotation Xrotation
			JOINT joint_20
			{
				OFFSET -53.071777 2.769531 -424.643028
				CHANNELS 3 Zrotation Yrotation Xrotation
				JOINT joint_21
				{
					OFFSET 200.264648 -28.253052 -82.862999
					CHANNELS 3 Zrotation Yrotation Xrotation
					End Site
					{
						OFFSET 0.000000 0.000000 0.000000
					}
				}
			}
		}
	}
}
MOTION
Frames: 13
Frame Time: 0.016667
-3053.024414 1376.266602 1119.760986 18.192793 -5.003858 0.101506 -0.631770 0.569594 0.274488 -0.657561 -0.035906 -0.123997 -0.654341 0.159200 0.093652 -0.231534 0.920212 1.217349 0.000000 0.000000 0.000000 2.577458 0.229732 1.952881 -0.760519 2.314275 -7.801855 0.037023 0.120652 0.848888 0.000000 0.000000 0.000000 2.674777 0.437603 1.399075 0.775711 0.523361 -0.345050 2.357588 2.774820 6.676368 0.000000 0.000000 0.000000 -0.204828 -12.213657 0.278962 -0.070548 14.322125 4.329029 1.743025 3.618158 1.047211 0.000000 0.000000 0.000000 -10.556597 -3.687649 2.325908 -10.530793 36.497394 -10.162445 -14.197490 -0.361828 -5.136815 0.000000 0.000000 0.000000 
-3047.166748 1375.986328 1120.665039 18.052163 -5.335175 -0.178326 -0.620725 0.613037 0.503113 -0.640814 -0.041518 -0.184491 -0.636919 0.162944 0.137932 -0.252695 1.016208 1.336026 0.000000 0.000000 0.000000 2.661654 0.150838 1.790543 -0.761725 2.121560 -7.152982 -0.119945 0.753563 0.009172 0.000000 0.000000 0.000000 2.561315 0.193614 1.404580 0.606254 0.416614 -1.025031 2.246165 2.357018 6.671366 0.000000 0.000000 0.000000 0.005034 -11.339769 0.810684 -0.096673 13.933770 4.180305 1.603901 3.547360 0.986591 0.000000 0.000000 0.000000 -10.970144 -4.729646 3.250294 -11.013556 38.791747 -11.629446 -15.906388 1.979820 -5.326574 0.000000 0.000000 0.000000 
-3041.615723 1375.744995 1122.029053 17.992822 -5.693994 -0.306931 -0.607348 0.684917 0.447865 -0.616587 -0.056242 -0.164380 -0.611407 0.182480 0.120138 -0.277978 1.071140 1.451704 0.000000 0.000000 0.000000 2.635771 0.068606 1.812638 -0.786780 1.992442 -6.839950 -0.217827 1.208334 -0.299045 0.000000 0.000000 0.000000 2.414104 -0.099466 1.351415 0.448931 0.188975 -1.380680 2.021051 1.856093 6.222707 0.000000 0.000000 0.000000 0.182558 -10.363942 1.105746 -0.120073 13.387372 4.119352 1.469276 3.505337 0.930982 0.000000 0.000000 0.000000 -11.355115 -5.645635 3.851494 -11.489691 40.874306 -12.710535 -17.656523 3.937962 -5.578572 0.000000 0.000000 0.000000 
-3036.433105 1375.580933 1123.797974 17.947734 -6.051091 -0.339774 -0.585351 0.762572 0.214460 -0.580484 -0.075630 -0.091420 -0.573694 0.208434 0.069146 -0.302105 1.114684 1.558162 0.000000 0.000000 0.000000 2.564867 -0.005894 1.904851 -0.816189 1.896443 -6.663866 -0.279600 1.562263 -0.316565 0.000000 0.000000 0.000000 2.256378 -0.412804 1.249440 0.286473 -0.105492 -1.554769 1.712334 1.286728 5.481168 0.000000 0.000000 0.000000 0.346525 -9.321054 1.281261 -0.119841 12.670773 4.061285 1.341244 3.499197 0.881861 0.000000 0.000000 0.000000 -11.669520 -6.505531 4.252780 -11.916583 42.789997 -13.524079 -19.380748 5.616975 -5.857155 0.000000 0.000000 0.000000 
-3031.590576 1375.688721 1125.640015 17.785155 -6.404418 -0.373095 -0.542123 0.827365 0.018276 -0.523591 -0.091758 -0.031871 -0.515459 0.222771 0.025826 -0.315130 1.170418 1.631236 0.000000 0.000000 0.000000 2.526396 -0.047731 1.941466 -0.828394 1.830298 -6.509812 -0.309407 1.761629 -0.252781 0.000000 0.000000 0.000000 2.138388 -0.670566 1.145415 0.100494 -0.360214 -1.698474 1.331599 0.613019 4.571435 0.000000 0.000000 0.000000 0.529621 -8.273947 1.490877 -0.063992 11.890295 3.936321 1.249807 3.509609 0.848160 0.000000 0.000000 0.000000 -11.744539 -7.302287 4.594630 -12.123025 44.654688 -14.033675 -20.651809 6.830743 -6.054128 0.000000 0.000000 0.000000 
-3027.084229 1376.147217 1127.484009 17.434035 -6.760181 -0.436817 -0.462699 0.866863 -0.063127 -0.434121 -0.094750 -0.009803 -0.426155 0.213540 0.005482 -0.310722 1.249820 1.654697 0.000000 0.000000 0.000000 2.561845 -0.037671 1.861237 -0.813012 1.799900 -6.317942 -0.308081 1.784694 -0.183599 0.000000 0.000000 0.000000 2.079575 -0.839130 1.051192 -0.125738 -0.537772 -1.843449 0.851510 -0.235709 3.496613 0.000000 0.000000 0.000000 0.755968 -7.227876 1.792192 0.070239 11.062001 3.704320 1.211400 3.530581 0.835326 0.000000 0.000000 0.000000 -11.543067 -8.037998 4.922106 -12.071334 46.565741 -14.266960 -21.315410 7.350077 -6.162118 0.000000 0.000000 0.000000 
-3022.918945 1376.877563 1129.401001 16.970093 -7.111284 -0.489339 -0.361273 0.889573 -0.121562 -0.327097 -0.093131 0.006020 -0.320249 0.192835 -0.007508 -0.294882 1.341030 1.643879 0.000000 0.000000 0.000000 2.632846 0.004504 1.723987 -0.779313 1.799228 -6.147571 -0.274061 1.654642 -0.029572 0.000000 0.000000 0.000000 2.060264 -0.949200 0.947280 -0.390961 -0.679860 -1.942092 0.279711 -1.198438 2.269175 0.000000 0.000000 0.000000 0.995107 -6.176662 2.106278 0.260718 10.171211 3.409118 1.218137 3.565183 0.840852 0.000000 0.000000 0.000000 -11.147529 -8.725044 5.179504 -11.836605 48.461049 -14.207077 -21.428321 7.346743 -6.180031 0.000000 0.000000 0.000000 
-3019.076416 1377.844116 1131.265991 16.477426 -7.434742 -0.523990 -0.269976 0.899012 -0.179627 -0.235069 -0.094481 0.020150 -0.228983 0.173985 -0.019597 -0.275410 1.437744 1.622021 0.000000 0.000000 0.000000 2.706033 0.043914 1.586170 -0.736646 1.807827 -6.060886 -0.209156 1.385516 0.233204 0.000000 0.000000 0.000000 2.082029 -1.026950 0.857150 -0.680409 -0.794005 -2.053635 -0.313729 -2.129990 1.028667 0.000000 0.000000 0.000000 1.209369 -5.169895 2.386269 0.472655 9.282295 3.107948 1.259582 3.599648 0.859475 0.000000 0.000000 0.000000 -10.580788 -9.367232 5.359781 -11.425295 50.206206 -13.752836 -20.832343 7.236949 -5.991775 0.000000 0.000000 0.000000 
-3015.594971 1379.062500 1133.093994 15.981812 -7.712703 -0.528929 -0.200063 0.886403 -0.258754 -0.170245 -0.104609 0.041703 -0.163225 0.166688 -0.035154 -0.249865 1.553926 1.586071 0.000000 0.000000 0.000000 2.778082 0.072470 1.459684 -0.686498 1.824679 -6.093804 -0.105549 0.937629 0.660727 0.000000 0.000000 0.000000 2.162865 -1.079499 0.801323 -0.995927 -0.878113 -2.212128 -0.924079 -3.024665 -0.219362 0.000000 0.000000 0.000000 1.393621 -4.224649 2.606050 0.692868 8.391299 2.814037 1.325608 3.632662 0.887319 0.000000 0.000000 0.000000 -9.749933 -10.000009 5.434992 -10.735481 51.816659 -12.739882 -19.096779 7.084530 -5.441466 0.000000 0.000000 0.000000 
-3012.436523 1380.516357 1134.870972 15.460353 -7.959734 -0.514802 -0.141047 0.855261 -0.343025 -0.122197 -0.117140 0.067279 -0.113757 0.164304 -0.052193 -0.220061 1.675813 1.536705 0.000000 0.000000 0.000000 2.852863 0.094155 1.338433 -0.635150 1.850130 -6.217934 0.022318 0.352477 1.202487 0.000000 0.000000 0.000000 2.286071 -1.103104 0.764563 -1.334928 -0.933947 -2.389592 -1.558793 -3.912283 -1.478394 0.000000 0.000000 0.000000 1.561267 -3.326657 2.784109 0.926856 7.501465 2.520380 1.420136 3.662124 0.925648 0.000000 0.000000 0.000000 -8.747672 -10.590906 5.419494 -9.861841 53.202776 -11.347984 -16.591525 6.798596 -4.659380 0.000000 0.000000 0.000000 
-3009.461182 1382.125977 1136.426025 14.921208 -8.198452 -0.507830 -0.094227 0.823169 -0.404611 -0.087721 -0.125513 0.084933 -0.078555 0.159751 -0.063670 -0.197219 1.763466 1.496151 0.000000 0.000000 0.000000 2.906991 0.094229 1.244811 -0.596021 1.865139 -6.393709 0.142013 -0.231235 1.723706 0.000000 0.000000 0.000000 2.404225 -1.110529 0.729848 -1.662579 -0.968819 -2.575894 -2.152935 -4.703675 -2.639153 0.000000 0.000000 0.000000 1.712994 -2.484130 2.939600 1.168159 6.691805 2.258361 1.547682 3.660705 0.973296 0.000000 0.000000 0.000000 -7.870154 -11.052343 5.376022 -9.094319 54.147804 -9.993315 -14.396544 6.605512 -3.963793 0.000000 0.000000 0.000000 
-3006.642334 1383.848389 1137.723999 14.373462 -8.440762 -0.508754 -0.064184 0.797289 -0.448973 -0.066942 -0.121101 0.095051 -0.059107 0.150538 -0.070685 -0.186648 1.793056 1.472814 0.000000 0.000000 0.000000 2.930596 0.064925 1.195337 -0.571297 1.864962 -6.632082 0.251174 -0.796867 2.214453 0.000000 0.000000 0.000000 2.508362 -1.110024 0.714375 -1.968632 -0.982287 -2.782815 -2.692499 -5.384249 -3.699397 0.000000 0.000000 0.000000 1.853161 -1.692689 3.067654 1.413853 5.980931 2.041249 1.705268 3.621158 1.028403 0.000000 0.000000 0.000000 -7.211321 -11.366395 5.319295 -8.519467 54.669300 -8.792620 -12.879790 6.742628 -3.440630 0.000000 0.000000 0.000000 
-3004.007080 1385.726807 1138.800049 13.813083 -8.671695 -0.515882 -0.050023 0.764011 -0.473209 -0.060316 -0.109809 0.098834 -0.054658 0.140231 -0.072556 -0.182687 1.790377 1.457968 0.000000 0.000000 0.000000 2.931178 0.012458 1.172029 -0.557825 1.851827 -6.921268 0.353494 -1.357123 2.691851 0.000000 0.000000 0.000000 2.610257 -1.098243 0.715660 -2.254220 -0.971172 -3.018682 -3.184905 -5.979438 -4.678759 0.000000 0.000000 0.000000 1.987684 -0.962296 3.170401 1.661285 5.353432 1.860017 1.884060 3.539746 1.087279 0.000000 0.000000 0.000000 -6.671514 -11.563507 5.241434 -8.034031 54.838827 -7.626318 -11.699024 7.022732 -3.007637 0.000000 0.000000 0.000000 
